<?xml version="1.0" encoding="UTF-8"?>
<!DOCTYPE svg PUBLIC "-//W3C//DTD SVG 1.1//EN" "http://www.w3.org/Graphics/SVG/1.1/DTD/svg11.dtd">
<!-- Creator: CorelDRAW 2020 (64-Bit) -->
<svg xmlns="http://www.w3.org/2000/svg" xml:space="preserve" width="210mm" height="297mm" version="1.1" style="shape-rendering:geometricPrecision; text-rendering:geometricPrecision; image-rendering:optimizeQuality; fill-rule:evenodd; clip-rule:evenodd"
viewBox="0 0 21000 29700"
 xmlns:xlink="http://www.w3.org/1999/xlink"
 xmlns:xodm="http://www.corel.com/coreldraw/odm/2003">
 <defs>
  <style type="text/css">
   <![CDATA[
    .str0 {stroke:black;stroke-width:7.62;stroke-linecap:round;stroke-linejoin:round;stroke-miterlimit:22.9256;stroke-opacity:0.901961}
    .fil0 {fill:none}
   ]]>
  </style>
 </defs>
 <g id="Слой_x0020_1">
  <metadata id="CorelCorpID_0Corel-Layer"/>
  <path class="fil0 str0" d="M18321.96 4983.72c-1081.39,-191.32 -1469.31,6584.41 -3452,5848.98 -3036.35,-1126.27 -6545.39,323.09 -7876.96,1350.3 273,-714 525,-1470 441,-2226 -63,-756 -525,-1533 -1260,-1743 -252,-63 -567,-63 -777,105 -210,168 -294,525 -105,714 168,168 462,168 651,21 189,-126 315,-336 420,-567 273,-609 399,-1302 378,-1974 -105,483 -504,861 -924,1113 -420,252 -903,420 -1344,651 -1323,735 -2226,2184 -2310,3717 210,84 462,42 630,-126 168,-168 168,-462 42,-651 -378,-42 -735,399 -672,798 63,378 441,651 819,777 378,105 777,84 1176,84 399,-21 798,0 1155,147 714,315 1029,1176 1071,1953 84,1449 -504,2835 -1092,4158 -63,-336 -441,-567 -777,-483 -336,84 -546,462 -462,777 147,525 903,630 1365,336 462,-294 693,-819 966,-1302 735,-1344 1848,-2478 3234,-3108 1386,-630 3066,-651 4410,42 1344,693 2310,2184 2226,3696 -147,-462 -924,-441 -1113,0 -189,441 147,840 630,945 462,105 966,-21 1239,-420 273,-399 357,-882 378,-1365 21,-483 -21,-966 21,-1449 84,-756 672,-1491 924,-2226 252,-714 315,-1470 231,-2226 -84,-756 -693,-1512 -1428,-1743 -252,-84 -546,-105 -798,21 -252,126 -420,378 -378,651 42,378 504,609 882,525 378,-84 672,-357 924,-651 1176,-1386 1134,-2163 147,-3654 -777,-1176 1616.39,-594.89 408.96,-2516.28z"/>
 </g>
</svg>
